<svg width="893" height="571" viewBox="0 0 893 571" fill="none" xmlns="http://www.w3.org/2000/svg">
<path d="M159.089 342.159C84.4989 321.812 36.191 336.473 12.9189 352.026C7.17528 355.865 9.72586 363.735 16.4312 365.397C75.7354 380.098 160.808 431.216 137.744 546.335C136.108 554.499 144.801 560.528 150.834 554.788C178.778 528.199 213.488 478.948 216.367 412.937C216.503 409.821 218.103 406.989 220.821 405.458C334.222 341.593 571.755 235.099 788.492 344.357C933.441 417.425 902.157 341.088 840.541 281.63C839.057 280.198 838.094 278.28 837.833 276.234C826.88 190.378 794.554 132.442 737.719 98.0438C504.971 -42.8228 237.577 186.116 169.9 337.125C168.045 341.265 163.465 343.353 159.089 342.159Z" fill="#03355D"/>
<path d="M481.296 81.2458C493.854 102.176 466.31 154.847 445.878 186.684C442.478 191.982 445.316 199.129 451.496 200.326C518.956 213.386 630.86 222.317 624.232 168.186C615.391 95.9815 463.613 51.7744 481.296 81.2458Z" fill="#03355D"/>
<path d="M456.045 382.434C473.296 360.029 456.332 291.47 442.906 251.291C441.041 245.707 444.872 239.795 450.753 239.542C519.74 236.58 633.524 246.414 615.244 308.176C591.044 389.938 432.331 413.233 456.045 382.434Z" fill="#03355D"/>
<path d="M159.001 320.921C84.4107 300.574 36.1028 315.235 12.8308 330.788C7.08714 334.627 9.63772 342.497 16.3431 344.159C75.6472 358.86 160.72 409.978 137.656 525.097C136.02 533.261 144.713 539.29 150.746 533.55C178.69 506.961 213.4 457.71 216.279 391.699C216.415 388.583 218.015 385.751 220.733 384.22C334.134 320.355 571.667 213.861 788.404 323.119C933.352 396.188 902.069 319.85 840.453 260.392C838.969 258.96 838.006 257.042 837.745 254.996C826.792 169.14 794.466 111.204 737.631 76.8059C504.883 -64.0608 237.489 164.878 169.812 315.887C167.957 320.027 163.377 322.115 159.001 320.921Z" fill="#ECECEC"/>
<path d="M481.296 9.95167C493.854 30.8817 466.31 83.5529 445.878 115.39C442.478 120.688 445.316 127.835 451.496 129.032C518.956 142.091 630.86 151.023 624.232 96.8923C615.391 24.6874 463.613 -19.5197 481.296 9.95167Z" fill="#ECECEC"/>
<path d="M456.045 311.14C473.296 288.735 456.332 220.176 442.906 179.996C441.041 174.413 444.872 168.501 450.753 168.248C519.74 165.286 633.524 175.12 615.244 236.881C591.044 318.644 432.331 341.939 456.045 311.14Z" fill="#ECECEC"/>
</svg>
